<svg width="100" height="29" viewBox="0 0 100 29" fill="none" xmlns="http://www.w3.org/2000/svg">
<path d="M99.4445 25.5571C99.4445 27.0966 98.1715 28.3437 96.5969 28.3437H3.40701C1.83316 28.3437 0.555664 27.0966 0.555664 25.5571V3.33513C0.555664 1.79633 1.83316 0.544922 3.40701 0.544922H96.5962C98.1715 0.544922 99.4438 1.79633 99.4438 3.33513L99.4445 25.5571Z" fill="white"/>
<path d="M96.2963 0.578465C98.0111 0.578465 99.4065 1.93895 99.4065 3.6109V25.2776C99.4065 26.9495 98.0111 28.31 96.2963 28.31H3.7037C1.98889 28.31 0.593518 26.9495 0.593518 25.2776V3.6109C0.593518 1.93895 1.98889 0.578465 3.7037 0.578465H96.2963ZM96.2963 -0.00021553H3.7037C1.66759 -0.00021553 0 1.62569 0 3.6109V25.2776C0 27.2628 1.66759 28.8887 3.7037 28.8887H96.2963C98.3324 28.8887 100 27.2628 100 25.2776V3.6109C100 1.62569 98.3324 -0.00021553 96.2963 -0.00021553Z" fill="#A6A6A6"/>
<path d="M22.3171 14.2886C22.2957 11.9609 24.272 10.8285 24.3623 10.7757C23.2431 9.18468 21.5082 8.96729 20.8986 8.94996C19.4416 8.80046 18.0282 9.80001 17.286 9.80001C16.529 9.80001 15.386 8.9644 14.1542 8.98896C12.569 9.01279 11.086 9.90762 10.2727 11.2972C8.59418 14.1305 9.84603 18.2941 11.4542 20.5842C12.2586 21.7058 13.1986 22.9582 14.429 22.9141C15.6327 22.8657 16.0823 22.1659 17.5349 22.1659C18.9742 22.1659 19.3964 22.9141 20.6512 22.886C21.9431 22.8657 22.7564 21.7593 23.5327 20.6276C24.4623 19.342 24.8357 18.076 24.8505 18.011C24.8201 18.0008 22.3416 17.0786 22.3171 14.2886Z" fill="black"/>
<path d="M19.9468 7.4434C20.5942 6.65401 21.0371 5.58007 20.9142 4.49023C19.9771 4.53068 18.8053 5.12218 18.1305 5.89423C17.5334 6.57457 17.0001 7.68968 17.1379 8.73835C18.1905 8.8149 19.2712 8.22051 19.9468 7.4434Z" fill="black"/>
<path d="M36.3333 7.22775C36.3333 8.0778 36.0718 8.71769 35.5496 9.14742C35.0659 9.54391 34.3785 9.74253 33.4881 9.74253C33.0466 9.74253 32.6688 9.72375 32.3525 9.68619V5.04158C32.7651 4.97658 33.2096 4.94336 33.6896 4.94336C34.5377 4.94336 35.177 5.12319 35.6081 5.48286C36.0911 5.88947 36.3333 6.47086 36.3333 7.22775ZM35.5148 7.24869C35.5148 6.69764 35.3651 6.27514 35.0659 5.98047C34.7666 5.68653 34.3296 5.53919 33.754 5.53919C33.5096 5.53919 33.3014 5.55508 33.1288 5.5883V9.11925C33.2244 9.13369 33.3992 9.14019 33.6533 9.14019C34.2474 9.14019 34.7059 8.97914 35.0288 8.65703C35.3518 8.33491 35.5148 7.86547 35.5148 7.24869Z" fill="black"/>
<path d="M40.6729 7.97001C40.6729 8.49362 40.5196 8.92262 40.2129 9.25917C39.8914 9.60512 39.4655 9.77773 38.9337 9.77773C38.4211 9.77773 38.0129 9.61234 37.7085 9.28012C37.4048 8.94862 37.2529 8.53045 37.2529 8.02634C37.2529 7.49912 37.4092 7.06651 37.7233 6.73067C38.0374 6.39484 38.4596 6.22656 38.9914 6.22656C39.504 6.22656 39.9159 6.39195 40.2277 6.72345C40.524 7.04556 40.6729 7.46156 40.6729 7.97001ZM39.8677 7.99456C39.8677 7.6804 39.7981 7.41101 39.6596 7.1864C39.4966 6.91484 39.2648 6.77906 38.9633 6.77906C38.6515 6.77906 38.4144 6.91484 38.2514 7.1864C38.1122 7.41101 38.0433 7.68473 38.0433 8.00828C38.0433 8.32245 38.1129 8.59184 38.2514 8.81645C38.4196 9.08801 38.6537 9.22378 38.9559 9.22378C39.2522 9.22378 39.4848 9.08584 39.6522 8.80923C39.7959 8.58028 39.8677 8.30873 39.8677 7.99456Z" fill="black"/>
<path d="M46.4929 6.29688L45.4003 9.70143H44.6891L44.2366 8.22304C44.1217 7.85399 44.0284 7.4871 43.9558 7.1231H43.9417C43.8743 7.49721 43.781 7.86338 43.661 8.22304L43.1803 9.70143H42.461L41.4336 6.29688H42.2314L42.6262 7.91538C42.7217 8.29815 42.8003 8.66288 42.8632 9.0081H42.8773C42.9351 8.72354 43.0306 8.36099 43.1654 7.9226L43.661 6.2976H44.2936L44.7684 7.88793C44.8832 8.27576 44.9766 8.64915 45.0484 9.00882H45.0699C45.1225 8.65854 45.2017 8.28515 45.3069 7.88793L45.7306 6.2976H46.4929V6.29688Z" fill="black"/>
<path d="M50.5168 9.70067H49.7405V7.75067C49.7405 7.14978 49.5064 6.84933 49.0368 6.84933C48.8064 6.84933 48.6205 6.93167 48.4761 7.09705C48.3331 7.26244 48.2605 7.45744 48.2605 7.68061V9.69994H47.4842V7.26894C47.4842 6.96994 47.4746 6.64567 47.4561 6.29467H48.1383L48.1746 6.82694H48.1961C48.2864 6.66155 48.4212 6.52505 48.5983 6.416C48.8086 6.28889 49.0442 6.22461 49.302 6.22461C49.6279 6.22461 49.899 6.32717 50.1146 6.533C50.3827 6.78505 50.5168 7.16133 50.5168 7.66111V9.70067Z" fill="black"/>
<path d="M52.6574 9.7011H51.8818V4.73438H52.6574V9.7011Z" fill="black"/>
<path d="M57.2276 7.97001C57.2276 8.49362 57.0743 8.92262 56.7676 9.25917C56.4461 9.60512 56.0195 9.77773 55.4884 9.77773C54.975 9.77773 54.5669 9.61234 54.2632 9.28012C53.9595 8.94862 53.8076 8.53045 53.8076 8.02634C53.8076 7.49912 53.9639 7.06651 54.278 6.73067C54.5921 6.39484 55.0143 6.22656 55.5454 6.22656C56.0587 6.22656 56.4698 6.39195 56.7824 6.72345C57.0787 7.04556 57.2276 7.46156 57.2276 7.97001ZM56.4217 7.99456C56.4217 7.6804 56.3521 7.41101 56.2135 7.1864C56.0513 6.91484 55.8187 6.77906 55.518 6.77906C55.2054 6.77906 54.9684 6.91484 54.8061 7.1864C54.6669 7.41101 54.598 7.68473 54.598 8.00828C54.598 8.32245 54.6676 8.59184 54.8061 8.81645C54.9743 9.08801 55.2084 9.22378 55.5106 9.22378C55.8069 9.22378 56.0387 9.08584 56.2061 8.80923C56.3506 8.58028 56.4217 8.30873 56.4217 7.99456Z" fill="black"/>
<path d="M60.9848 9.70045H60.2878L60.23 9.30828H60.2085C59.97 9.62101 59.63 9.77773 59.1885 9.77773C58.8589 9.77773 58.5922 9.67445 58.3915 9.46934C58.2093 9.28301 58.1182 9.05117 58.1182 8.77601C58.1182 8.36001 58.2959 8.04295 58.6537 7.8234C59.0108 7.60384 59.513 7.49623 60.1596 7.50128V7.43773C60.1596 6.98923 59.9182 6.76534 59.4345 6.76534C59.09 6.76534 58.7863 6.84984 58.5241 7.0174L58.3663 6.52051C58.6908 6.32478 59.0915 6.22656 59.5641 6.22656C60.4767 6.22656 60.9345 6.69601 60.9345 7.6349V8.88867C60.9345 9.22884 60.9515 9.49967 60.9848 9.70045ZM60.1789 8.53045V8.0054C59.3226 7.99095 58.8945 8.2199 58.8945 8.69151C58.8945 8.86917 58.9433 9.00206 59.0433 9.09089C59.1433 9.17973 59.2708 9.22378 59.4226 9.22378C59.593 9.22378 59.7522 9.17106 59.8974 9.06634C60.0433 8.9609 60.133 8.82728 60.1663 8.66334C60.1745 8.62651 60.1789 8.58173 60.1789 8.53045Z" fill="black"/>
<path d="M65.3958 9.7011H64.7069L64.6706 9.15437H64.6492C64.4292 9.57037 64.0543 9.77837 63.5277 9.77837C63.1069 9.77837 62.7566 9.61732 62.4788 9.29521C62.201 8.9731 62.0625 8.55493 62.0625 8.04143C62.0625 7.49038 62.2129 7.04404 62.5151 6.70315C62.8077 6.38537 63.1662 6.22649 63.5929 6.22649C64.0618 6.22649 64.3899 6.38032 64.5766 6.68871H64.5914V4.73438H65.3684V8.78387C65.3684 9.11538 65.3773 9.42087 65.3958 9.7011ZM64.5914 8.26532V7.69765C64.5914 7.59943 64.584 7.51999 64.5699 7.45932C64.5262 7.27732 64.4321 7.12421 64.2892 7.00071C64.1447 6.87721 63.9706 6.8151 63.7699 6.8151C63.4803 6.8151 63.2536 6.92704 63.0869 7.15165C62.9218 7.37626 62.8381 7.66299 62.8381 8.01326C62.8381 8.34982 62.9173 8.62282 63.0766 8.83299C63.2447 9.05687 63.4714 9.16882 63.7551 9.16882C64.0099 9.16882 64.2136 9.07565 64.3684 8.8886C64.5181 8.71599 64.5914 8.50799 64.5914 8.26532Z" fill="black"/>
<path d="M72.0352 7.97001C72.0352 8.49362 71.8819 8.92262 71.5752 9.25917C71.2538 9.60512 70.8286 9.77773 70.296 9.77773C69.7841 9.77773 69.376 9.61234 69.0708 9.28012C68.7671 8.94862 68.6152 8.53045 68.6152 8.02634C68.6152 7.49912 68.7715 7.06651 69.0856 6.73067C69.3997 6.39484 69.8219 6.22656 70.3545 6.22656C70.8663 6.22656 71.2789 6.39195 71.59 6.72345C71.8863 7.04556 72.0352 7.46156 72.0352 7.97001ZM71.2308 7.99456C71.2308 7.6804 71.1612 7.41101 71.0226 7.1864C70.8589 6.91484 70.6278 6.77906 70.3256 6.77906C70.0145 6.77906 69.7775 6.91484 69.6138 7.1864C69.4745 7.41101 69.4056 7.68473 69.4056 8.00828C69.4056 8.32245 69.4752 8.59184 69.6138 8.81645C69.7819 9.08801 70.016 9.22378 70.3182 9.22378C70.6145 9.22378 70.8478 9.08584 71.0152 8.80923C71.1582 8.58028 71.2308 8.30873 71.2308 7.99456Z" fill="black"/>
<path d="M76.2094 9.70067H75.4339V7.75067C75.4339 7.14978 75.1998 6.84933 74.7294 6.84933C74.499 6.84933 74.3131 6.93167 74.1694 7.09705C74.0257 7.26244 73.9539 7.45744 73.9539 7.68061V9.69994H73.1768V7.26894C73.1768 6.96994 73.1679 6.64567 73.1494 6.29467H73.8309L73.8672 6.82694H73.8887C73.9798 6.66155 74.1146 6.52505 74.2909 6.416C74.502 6.28889 74.7368 6.22461 74.9953 6.22461C75.3205 6.22461 75.5916 6.32717 75.8072 6.533C76.0761 6.78505 76.2094 7.16133 76.2094 7.66111V9.70067Z" fill="black"/>
<path d="M81.4343 6.86405H80.5795V8.51794C80.5795 8.93827 80.7313 9.14844 81.0321 9.14844C81.1713 9.14844 81.2869 9.13689 81.378 9.11305L81.398 9.68722C81.2447 9.74355 81.0432 9.77172 80.795 9.77172C80.4884 9.77172 80.2498 9.68072 80.0772 9.49872C79.9039 9.31672 79.818 9.0105 79.818 8.58077V6.86405H79.3076V6.29711H79.818V5.67311L80.5787 5.44922V6.29639H81.4335V6.86405H81.4343Z" fill="black"/>
<path d="M85.5434 9.7011H84.7663V7.76554C84.7663 7.15526 84.5322 6.84976 84.0633 6.84976C83.7033 6.84976 83.4574 7.02671 83.3226 7.3806C83.2996 7.45499 83.2863 7.54599 83.2863 7.65288V9.70038H82.5107V4.73438H83.2863V6.78621H83.3011C83.5456 6.41282 83.8959 6.22649 84.35 6.22649C84.6715 6.22649 84.9374 6.32904 85.1485 6.53487C85.4115 6.79126 85.5434 7.1726 85.5434 7.67671V9.7011Z" fill="black"/>
<path d="M89.7831 7.83776C89.7831 7.97354 89.7728 8.08765 89.7543 8.18081H87.4261C87.4365 8.51737 87.5476 8.77376 87.7632 8.95142C87.9602 9.11031 88.2143 9.18976 88.5254 9.18976C88.8698 9.18976 89.1839 9.13631 89.4669 9.0287L89.5883 9.55448C89.2572 9.69459 88.8676 9.76465 88.4165 9.76465C87.8757 9.76465 87.4498 9.60937 87.1417 9.29881C86.832 8.98826 86.6787 8.57154 86.6787 8.04865C86.6787 7.53515 86.8217 7.10759 87.1098 6.7667C87.4106 6.4027 87.8172 6.2207 88.3306 6.2207C88.8328 6.2207 89.2143 6.4027 89.472 6.7667C89.6802 7.05559 89.7831 7.41309 89.7831 7.83776ZM89.0424 7.64204C89.0483 7.41742 88.9972 7.22387 88.892 7.06065C88.7572 6.85048 88.552 6.74504 88.2743 6.74504C88.0209 6.74504 87.8143 6.84759 87.6565 7.05343C87.5276 7.21737 87.4513 7.41309 87.4261 7.64204H89.0424Z" fill="black"/>
<path d="M39.7373 22.752H38.055L37.1336 19.9288H33.9306L33.0528 22.752H31.415L34.5884 13.1406H36.5484L39.7373 22.752ZM36.8558 18.7443L36.0224 16.2346C35.9343 15.9782 35.7691 15.3745 35.5254 14.424H35.4958C35.3987 14.8328 35.2424 15.4366 35.0276 16.2346L34.2091 18.7443H36.8558Z" fill="black"/>
<path d="M47.8979 19.202C47.8979 20.3806 47.5713 21.3123 46.9179 21.9962C46.3327 22.6051 45.6061 22.9091 44.7387 22.9091C43.8024 22.9091 43.1298 22.5812 42.7201 21.9255H42.6905V25.5763H41.1113V18.1035C41.1113 17.3625 41.0913 16.602 41.0527 15.822H42.4416L42.5298 16.9205H42.5594C43.0861 16.0928 43.8853 15.6797 44.9579 15.6797C45.7964 15.6797 46.4964 16.0025 47.0564 16.6489C47.6179 17.296 47.8979 18.1468 47.8979 19.202ZM46.289 19.2583C46.289 18.5837 46.1335 18.0276 45.8209 17.59C45.4794 17.1335 45.0209 16.9053 44.4461 16.9053C44.0564 16.9053 43.7024 17.0324 43.3861 17.283C43.069 17.5358 42.8616 17.8659 42.7646 18.2746C42.7157 18.4653 42.6913 18.6213 42.6913 18.7441V19.8996C42.6913 20.4037 42.8498 20.8291 43.1668 21.1765C43.4838 21.5239 43.8957 21.6972 44.4024 21.6972C44.9972 21.6972 45.4601 21.4734 45.7913 21.027C46.1231 20.58 46.289 19.9906 46.289 19.2583Z" fill="black"/>
<path d="M56.0739 19.202C56.0739 20.3806 55.7473 21.3123 55.0932 21.9962C54.5088 22.6051 53.7821 22.9091 52.9147 22.9091C51.9784 22.9091 51.3058 22.5812 50.8969 21.9255H50.8673V25.5763H49.288V18.1035C49.288 17.3625 49.268 16.602 49.2295 15.822H50.6184L50.7065 16.9205H50.7362C51.2621 16.0928 52.0613 15.6797 53.1347 15.6797C53.9725 15.6797 54.6725 16.0025 55.2339 16.6489C55.7932 17.296 56.0739 18.1468 56.0739 19.202ZM54.465 19.2583C54.465 18.5837 54.3088 18.0276 53.9962 17.59C53.6547 17.1335 53.1976 16.9053 52.6221 16.9053C52.2317 16.9053 51.8784 17.0324 51.5613 17.283C51.2443 17.5358 51.0376 17.8659 50.9406 18.2746C50.8925 18.4653 50.8673 18.6213 50.8673 18.7441V19.8996C50.8673 20.4037 51.0258 20.8291 51.3413 21.1765C51.6584 21.5232 52.0702 21.6972 52.5784 21.6972C53.1732 21.6972 53.6362 21.4734 53.9673 21.027C54.2991 20.58 54.465 19.9906 54.465 19.2583Z" fill="black"/>
<path d="M65.2142 20.0568C65.2142 20.8744 64.9231 21.5396 64.3386 22.0531C63.6964 22.6142 62.8023 22.8944 61.6535 22.8944C60.5927 22.8944 59.7423 22.6951 59.0986 22.2957L59.4646 21.0123C60.1579 21.4211 60.9186 21.6262 61.7475 21.6262C62.3423 21.6262 62.8053 21.4948 63.1379 21.2333C63.469 20.9719 63.6342 20.6209 63.6342 20.1832C63.6342 19.7932 63.4979 19.4646 63.2246 19.1981C62.9527 18.9316 62.4986 18.6839 61.8646 18.4549C60.1386 17.8273 59.2764 16.9079 59.2764 15.6989C59.2764 14.9088 59.5786 14.261 60.1838 13.7569C60.7868 13.2521 61.5912 13 62.5972 13C63.4942 13 64.2394 13.1524 64.8342 13.4564L64.4394 14.7117C63.8838 14.417 63.2557 14.2697 62.5527 14.2697C61.9972 14.2697 61.5631 14.4033 61.252 14.6691C60.989 14.9067 60.8572 15.1963 60.8572 15.5393C60.8572 15.9192 61.0075 16.2334 61.3097 16.4804C61.5727 16.7086 62.0505 16.9556 62.7438 17.2221C63.592 17.5551 64.2149 17.9443 64.6157 18.3907C65.0149 18.8356 65.2142 19.3924 65.2142 20.0568Z" fill="black"/>
<path d="M70.4353 16.9781H68.6946V20.3429C68.6946 21.1988 69.0013 21.6263 69.6161 21.6263C69.8983 21.6263 70.1324 21.6025 70.3176 21.5548L70.3613 22.7241C70.0501 22.8375 69.6405 22.8945 69.1331 22.8945C68.5094 22.8945 68.022 22.7089 67.6702 22.3384C67.3198 21.9672 67.1435 21.3446 67.1435 20.47V16.9766H66.1064V15.8211H67.1435V14.5521L68.6946 14.0957V15.8211H70.4353V16.9781Z" fill="black"/>
<path d="M78.2894 19.2294C78.2894 20.2947 77.9768 21.1693 77.3531 21.8532C76.699 22.5574 75.8309 22.9084 74.7486 22.9084C73.7057 22.9084 72.8753 22.5711 72.256 21.8966C71.6368 21.222 71.3271 20.3705 71.3271 19.3442C71.3271 18.2703 71.6457 17.3906 72.2849 16.7067C72.9227 16.022 73.7834 15.6797 74.8657 15.6797C75.9086 15.6797 76.7479 16.017 77.3812 16.6922C77.9871 17.3473 78.2894 18.193 78.2894 19.2294ZM76.6509 19.2792C76.6509 18.6401 76.5109 18.0919 76.2271 17.6347C75.896 17.0815 75.4227 16.8056 74.8094 16.8056C74.1746 16.8056 73.6923 17.0822 73.3612 17.6347C73.0775 18.0926 72.9375 18.6495 72.9375 19.3081C72.9375 19.9473 73.0775 20.4955 73.3612 20.9519C73.7027 21.5051 74.1797 21.781 74.7953 21.781C75.3983 21.781 75.8716 21.4994 76.2131 20.9375C76.5042 20.4716 76.6509 19.9177 76.6509 19.2792Z" fill="black"/>
<path d="M83.4231 17.1761C83.2668 17.148 83.1001 17.1335 82.9253 17.1335C82.3698 17.1335 81.9401 17.3379 81.6379 17.7474C81.3749 18.1085 81.2431 18.565 81.2431 19.116V22.7524H79.6646L79.6794 18.0045C79.6794 17.2057 79.6594 16.4785 79.6201 15.8227H80.9957L81.0535 17.1487H81.0972C81.2638 16.693 81.5268 16.3261 81.8868 16.0509C82.2386 15.8032 82.6187 15.6797 83.0283 15.6797C83.1742 15.6797 83.3061 15.6898 83.4231 15.7079V17.1761Z" fill="black"/>
<path d="M90.486 18.9586C90.486 19.2345 90.4675 19.4671 90.4282 19.657H85.6904C85.7089 20.3417 85.9378 20.8653 86.3778 21.2264C86.7771 21.5492 87.2934 21.711 87.9275 21.711C88.6289 21.711 89.2689 21.602 89.8445 21.3831L90.0919 22.452C89.4193 22.738 88.6252 22.8803 87.7089 22.8803C86.6067 22.8803 85.7415 22.564 85.1119 21.932C84.4838 21.3001 84.1689 20.4515 84.1689 19.3869C84.1689 18.3418 84.4615 17.4716 85.0475 16.7775C85.6608 16.0365 86.4897 15.666 87.5326 15.666C88.5571 15.666 89.3326 16.0365 89.8593 16.7775C90.2763 17.3661 90.486 18.0941 90.486 18.9586ZM88.9801 18.5592C88.9904 18.1028 88.8875 17.7085 88.6734 17.3755C88.4001 16.9472 87.9801 16.7335 87.4149 16.7335C86.8986 16.7335 86.4786 16.9422 86.1578 17.3611C85.8949 17.694 85.7386 18.0934 85.6904 18.5585H88.9801V18.5592Z" fill="black"/>
</svg>
