<svg width="24" height="25" viewBox="0 0 24 25" fill="none" xmlns="http://www.w3.org/2000/svg">
<g id="arrow_forward_ios">
<mask id="mask0_3345_36660" style="mask-type:alpha" maskUnits="userSpaceOnUse" x="0" y="0" width="24" height="25">
<rect id="Bounding box" y="0.5" width="24" height="24" fill="#D9D9D9"/>
</mask>
<g mask="url(#mask0_3345_36660)">
<path id="arrow_forward_ios_2" d="M14.8311 12.5019L7.2984 4.96923C7.09969 4.77051 7.00289 4.53398 7.00801 4.25963C7.01314 3.98526 7.11506 3.74873 7.31378 3.55003C7.5125 3.35131 7.74903 3.25195 8.02338 3.25195C8.29773 3.25195 8.53426 3.35131 8.73298 3.55003L16.3888 11.2212C16.5695 11.4019 16.7035 11.6045 16.7907 11.8288C16.8778 12.0532 16.9214 12.2776 16.9214 12.5019C16.9214 12.7263 16.8778 12.9506 16.7907 13.175C16.7035 13.3993 16.5695 13.6019 16.3888 13.7827L8.7176 21.4538C8.51889 21.6525 8.28491 21.7493 8.01568 21.7442C7.74646 21.7391 7.5125 21.6372 7.31378 21.4384C7.11506 21.2397 7.0157 21.0032 7.0157 20.7288C7.0157 20.4545 7.11506 20.218 7.31378 20.0192L14.8311 12.5019Z" fill="#4F6486"/>
</g>
</g>
</svg>
