<svg width="24" height="25" viewBox="0 0 24 25" fill="none" xmlns="http://www.w3.org/2000/svg">
<mask id="mask0_3345_36369" style="mask-type:alpha" maskUnits="userSpaceOnUse" x="0" y="0" width="24" height="25">
<rect y="0.5" width="24" height="24" fill="#D9D9D9"/>
</mask>
<g mask="url(#mask0_3345_36369)">
<path d="M5.74908 21.8085C5.24396 21.8085 4.81641 21.6335 4.46641 21.2835C4.11641 20.9335 3.94141 20.5059 3.94141 20.0008V7.30859H5.44138V20.0008C5.44138 20.0777 5.47343 20.1482 5.53753 20.2124C5.60163 20.2765 5.67215 20.3085 5.74908 20.3085H15.4413V21.8085H5.74908ZM9.24905 18.3085C8.74392 18.3085 8.31635 18.1335 7.96635 17.7835C7.61637 17.4335 7.44138 17.006 7.44138 16.5008V5.11627C7.44138 4.61115 7.61637 4.18359 7.96635 3.83359C8.31635 3.48359 8.74392 3.30859 9.24905 3.30859H17.6336C18.1387 3.30859 18.5663 3.48359 18.9163 3.83359C19.2663 4.18359 19.4413 4.61115 19.4413 5.11627V16.5008C19.4413 17.006 19.2663 17.4335 18.9163 17.7835C18.5663 18.1335 18.1387 18.3085 17.6336 18.3085H9.24905ZM9.24905 16.8086H17.6336C17.7105 16.8086 17.7811 16.7765 17.8452 16.7124C17.9093 16.6483 17.9413 16.5778 17.9413 16.5008V5.11627C17.9413 5.03933 17.9093 4.96882 17.8452 4.90472C17.7811 4.84062 17.7105 4.80857 17.6336 4.80857H9.24905C9.17212 4.80857 9.1016 4.84062 9.0375 4.90472C8.97339 4.96882 8.94133 5.03933 8.94133 5.11627V16.5008C8.94133 16.5778 8.97339 16.6483 9.0375 16.7124C9.1016 16.7765 9.17212 16.8086 9.24905 16.8086Z" fill="#E87E57"/>
</g>
</svg>
