<svg width="20" height="21" viewBox="0 0 20 21" fill="none" xmlns="http://www.w3.org/2000/svg">
<g clip-path="url(#clip0_3345_36669)">
<path d="M16.8426 4.0829C15.5749 3.50121 14.2154 3.07266 12.7941 2.8272C12.7682 2.82246 12.7423 2.8343 12.729 2.85798C12.5542 3.16894 12.3605 3.57461 12.2249 3.89347C10.6961 3.66459 9.17515 3.66459 7.67772 3.89347C7.54207 3.56752 7.34138 3.16894 7.16576 2.85798C7.15242 2.83509 7.12657 2.82325 7.10068 2.8272C5.68009 3.07187 4.32065 3.50043 3.05214 4.0829C3.04116 4.08763 3.03175 4.09553 3.0255 4.10579C0.446931 7.95812 -0.259447 11.7158 0.0870783 15.4268C0.0886463 15.445 0.0988381 15.4623 0.11295 15.4734C1.81422 16.7227 3.46219 17.4812 5.07955 17.984C5.10543 17.9919 5.13286 17.9824 5.14933 17.9611C5.53192 17.4386 5.87296 16.8877 6.16538 16.3084C6.18263 16.2745 6.16616 16.2342 6.13089 16.2208C5.58994 16.0156 5.07484 15.7654 4.57936 15.4813C4.54017 15.4584 4.53703 15.4023 4.57308 15.3755C4.67735 15.2974 4.78165 15.2161 4.88121 15.134C4.89922 15.119 4.92432 15.1158 4.9455 15.1253C8.20063 16.6115 11.7247 16.6115 14.9414 15.1253C14.9626 15.115 14.9877 15.1182 15.0065 15.1332C15.1061 15.2153 15.2103 15.2974 15.3154 15.3755C15.3514 15.4023 15.3491 15.4584 15.3099 15.4813C14.8144 15.7709 14.2993 16.0156 13.7576 16.22C13.7223 16.2334 13.7066 16.2745 13.7239 16.3084C14.0226 16.8869 14.3636 17.4378 14.7391 17.9603C14.7548 17.9824 14.783 17.9919 14.8089 17.984C16.4341 17.4812 18.0821 16.7227 19.7834 15.4734C19.7983 15.4623 19.8077 15.4457 19.8092 15.4276C20.224 11.1372 19.1146 7.41038 16.8685 4.10657C16.863 4.09553 16.8536 4.08763 16.8426 4.0829ZM6.65148 13.1672C5.67146 13.1672 4.86395 12.2674 4.86395 11.1625C4.86395 10.0575 5.6558 9.15779 6.65148 9.15779C7.65497 9.15779 8.45466 10.0654 8.43897 11.1625C8.43897 12.2674 7.64712 13.1672 6.65148 13.1672ZM13.2605 13.1672C12.2805 13.1672 11.473 12.2674 11.473 11.1625C11.473 10.0575 12.2649 9.15779 13.2605 9.15779C14.2641 9.15779 15.0637 10.0654 15.0481 11.1625C15.0481 12.2674 14.2641 13.1672 13.2605 13.1672Z" fill="#5865F2"/>
</g>
<defs>
<clipPath id="clip0_3345_36669">
<rect width="19.89" height="19.89" fill="white" transform="translate(0.00488281 0.638672)"/>
</clipPath>
</defs>
</svg>
