<svg width="100" height="29" viewBox="0 0 100 29" fill="none" xmlns="http://www.w3.org/2000/svg">
<path d="M96.2963 28.8887H3.7037C1.66759 28.8887 0 27.2628 0 25.2776V3.6109C0 1.62569 1.66759 -0.000216484 3.7037 -0.000216484H96.2963C98.3324 -0.000216484 100 1.62569 100 3.6109V25.2776C100 27.2628 98.3324 28.8887 96.2963 28.8887Z" fill="white"/>
<path d="M96.2963 0.578464C98.0111 0.578464 99.4065 1.93895 99.4065 3.6109V25.2776C99.4065 26.9495 98.0111 28.31 96.2963 28.31H3.7037C1.98889 28.31 0.593518 26.9495 0.593518 25.2776V3.6109C0.593518 1.93895 1.98889 0.578464 3.7037 0.578464H96.2963ZM96.2963 -0.000216484H3.7037C1.66759 -0.000216484 0 1.62569 0 3.6109V25.2776C0 27.2628 1.66759 28.8887 3.7037 28.8887H96.2963C98.3324 28.8887 100 27.2628 100 25.2776V3.6109C100 1.62569 98.3324 -0.000216484 96.2963 -0.000216484Z" fill="#A6A6A6"/>
<path d="M7.72926 5.44415C7.51167 5.66623 7.38574 6.012 7.38574 6.45977V22.4317C7.38574 22.8795 7.51167 23.2253 7.72926 23.4473L7.78296 23.4961L16.9626 14.5496V14.3383L7.78296 5.39179L7.72926 5.44415Z" fill="url(#paint0_linear_3345_36882)"/>
<path d="M20.0194 17.5332L16.9629 14.5495V14.3383L20.0231 11.3546L20.0916 11.3934L23.7157 13.4039C24.7499 13.9745 24.7499 14.9133 23.7157 15.4875L20.0916 17.4944L20.0194 17.5332Z" fill="url(#paint1_linear_3345_36882)"/>
<path d="M20.0915 17.4952L16.9628 14.4447L7.72949 23.4481C8.07301 23.8002 8.6332 23.8427 9.27023 23.4906L20.0915 17.4952Z" fill="url(#paint2_linear_3345_36882)"/>
<path d="M20.0915 11.3948L9.27023 5.39948C8.6332 5.05101 8.07301 5.09344 7.72949 5.44552L16.9628 14.4453L20.0915 11.3948Z" fill="url(#paint3_linear_3345_36882)"/>
<path d="M35.1244 7.39724C35.1244 8.0003 34.9392 8.48328 34.5744 8.84349C34.155 9.2705 33.6087 9.48536 32.9392 9.48536C32.2994 9.48536 31.7531 9.26689 31.305 8.83627C30.8559 8.39932 30.6318 7.86307 30.6318 7.2212C30.6318 6.57932 30.8559 6.04307 31.305 5.60974C31.7531 5.1755 32.2994 4.95703 32.9392 4.95703C33.2578 4.95703 33.5615 5.02113 33.8513 5.1403C34.1402 5.26036 34.3754 5.42286 34.5457 5.62328L34.1587 6.00425C33.8615 5.6621 33.4568 5.49328 32.9392 5.49328C32.4726 5.49328 32.0679 5.65217 31.7244 5.97266C31.3846 6.29405 31.2142 6.71023 31.2142 7.2212C31.2142 7.73217 31.3846 8.15196 31.7244 8.47335C32.0679 8.79023 32.4726 8.95273 32.9392 8.95273C33.4346 8.95273 33.8513 8.79023 34.18 8.46974C34.3967 8.25759 34.5198 7.96509 34.5522 7.59134H32.9392V7.06953H35.0911C35.117 7.18238 35.1244 7.29161 35.1244 7.39724Z" fill="black" stroke="black" stroke-width="0.16" stroke-miterlimit="10"/>
<path d="M38.5379 5.58838H36.5166V6.9606H38.3388V7.4824H36.5166V8.85463H38.5379V9.38636H35.9443V5.05664H38.5379V5.58838Z" fill="black" stroke="black" stroke-width="0.16" stroke-miterlimit="10"/>
<path d="M40.9478 9.38636H40.3756V5.58838H39.1357V5.05664H42.1885V5.58838H40.9478V9.38636Z" fill="black" stroke="black" stroke-width="0.16" stroke-miterlimit="10"/>
<path d="M44.3975 9.38636V5.05664H44.9688V9.38636H44.3975Z" fill="black" stroke="black" stroke-width="0.16" stroke-miterlimit="10"/>
<path d="M47.5015 9.38636H46.9339V5.58838H45.6895V5.05664H48.7459V5.58838H47.5015V9.38636Z" fill="black" stroke="black" stroke-width="0.16" stroke-miterlimit="10"/>
<path d="M54.5252 8.82905C54.0873 9.26689 53.5447 9.48536 52.8974 9.48536C52.2465 9.48536 51.7039 9.26689 51.266 8.82905C50.8289 8.3921 50.6113 7.85585 50.6113 7.2212C50.6113 6.58655 50.8289 6.0503 51.266 5.61335C51.7039 5.1755 52.2465 4.95703 52.8974 4.95703C53.541 4.95703 54.0836 5.1755 54.5215 5.61696C54.9623 6.05752 55.1798 6.59016 55.1798 7.2212C55.1798 7.85585 54.9623 8.3921 54.5252 8.82905ZM51.6891 8.46613C52.0187 8.79023 52.4197 8.95273 52.8974 8.95273C53.3715 8.95273 53.7761 8.79023 54.1021 8.46613C54.4308 8.14203 54.5974 7.72585 54.5974 7.2212C54.5974 6.71655 54.4308 6.30037 54.1021 5.97627C53.7761 5.65217 53.3715 5.48967 52.8974 5.48967C52.4197 5.48967 52.0187 5.65217 51.6891 5.97627C51.3604 6.30037 51.1937 6.71655 51.1937 7.2212C51.1937 7.72585 51.3604 8.14203 51.6891 8.46613Z" fill="black" stroke="black" stroke-width="0.16" stroke-miterlimit="10"/>
<path d="M55.9824 9.38636V5.05664H56.6769L58.8361 8.424H58.8611L58.8361 7.59164V5.05664H59.4074V9.38636H58.8111L56.55 5.85289H56.525L56.55 6.68886V9.38636H55.9824Z" fill="black" stroke="black" stroke-width="0.16" stroke-miterlimit="10"/>
<path d="M50.4708 15.7099C48.7309 15.7099 47.3096 17.0009 47.3096 18.7821C47.3096 20.5488 48.7309 21.8533 50.4708 21.8533C52.2143 21.8533 53.6356 20.5488 53.6356 18.7821C53.6356 17.0009 52.2143 15.7099 50.4708 15.7099ZM50.4708 20.6436C49.5161 20.6436 48.6948 19.8754 48.6948 18.7821C48.6948 17.6744 49.5161 16.9197 50.4708 16.9197C51.4254 16.9197 52.2504 17.6744 52.2504 18.7821C52.2504 19.8754 51.4254 20.6436 50.4708 20.6436ZM43.5735 15.7099C41.83 15.7099 40.4124 17.0009 40.4124 18.7821C40.4124 20.5488 41.83 21.8533 43.5735 21.8533C45.3161 21.8533 46.7346 20.5488 46.7346 18.7821C46.7346 17.0009 45.3161 15.7099 43.5735 15.7099ZM43.5735 20.6436C42.618 20.6436 41.7939 19.8754 41.7939 18.7821C41.7939 17.6744 42.618 16.9197 43.5735 16.9197C44.5282 16.9197 45.3495 17.6744 45.3495 18.7821C45.3495 19.8754 44.5282 20.6436 43.5735 20.6436ZM35.3661 16.6515V17.957H38.5633C38.4698 18.6864 38.2198 19.2226 37.8365 19.5964C37.3698 20.0478 36.643 20.5488 35.3661 20.5488C33.3985 20.5488 31.8578 19.0006 31.8578 17.0822C31.8578 15.1638 33.3985 13.6155 35.3661 13.6155C36.43 13.6155 37.2041 14.0208 37.7754 14.5463L38.7189 13.6263C37.9198 12.8824 36.8569 12.311 35.3661 12.311C32.668 12.311 30.4004 14.4515 30.4004 17.0822C30.4004 19.7129 32.668 21.8533 35.3661 21.8533C36.8245 21.8533 37.9198 21.3875 38.7809 20.5136C39.6633 19.6533 39.9383 18.4436 39.9383 17.4667C39.9383 17.1634 39.9124 16.8845 39.8661 16.6515H35.3661ZM68.9272 17.6636C68.667 16.9765 67.8643 15.7099 66.2291 15.7099C64.6087 15.7099 63.2596 16.9549 63.2596 18.7821C63.2596 20.5028 64.5948 21.8533 66.3846 21.8533C67.8319 21.8533 68.667 20.993 69.0106 20.492L67.9365 19.7941C67.5782 20.3051 67.0902 20.6436 66.3846 20.6436C65.6837 20.6436 65.1809 20.3304 64.8587 19.7129L69.0726 18.0129L68.9272 17.6636ZM64.6309 18.6864C64.5948 17.502 65.5745 16.8953 66.2763 16.8953C66.8263 16.8953 67.293 17.1634 67.4485 17.5471L64.6309 18.6864ZM61.2059 21.6665H62.5911V12.6387H61.2059V21.6665ZM58.9374 16.3942H58.8911C58.58 16.0349 57.9865 15.7099 57.2346 15.7099C55.6569 15.7099 54.2143 17.0605 54.2143 18.792C54.2143 20.5136 55.6569 21.8533 57.2346 21.8533C57.9865 21.8533 58.58 21.5256 58.8911 21.1555H58.9374V21.5961C58.9374 22.7706 58.2939 23.4016 57.2559 23.4016C56.4096 23.4016 55.8846 22.8058 55.668 22.3047L54.4633 22.7949C54.8106 23.6092 55.73 24.6113 57.2559 24.6113C58.88 24.6113 60.2504 23.6797 60.2504 21.4128V15.8968H58.9374V16.3942ZM57.3532 20.6436C56.3985 20.6436 55.5995 19.8645 55.5995 18.792C55.5995 17.7096 56.3985 16.9197 57.3532 16.9197C58.2939 16.9197 59.0356 17.7096 59.0356 18.792C59.0356 19.8645 58.2939 20.6436 57.3532 20.6436ZM75.4124 12.6387H72.0994V21.6665H73.4809V18.2458H75.4124C76.9467 18.2458 78.4513 17.1634 78.4513 15.4418C78.4513 13.7211 76.943 12.6387 75.4124 12.6387ZM75.4485 16.9901H73.4809V13.8945H75.4485C76.48 13.8945 77.0689 14.7295 77.0689 15.4418C77.0689 16.1406 76.48 16.9901 75.4485 16.9901ZM83.9883 15.6928C82.9902 15.6928 81.9522 16.1225 81.5254 17.0749L82.7513 17.576C83.0152 17.0749 83.5004 16.9124 84.0133 16.9124C84.73 16.9124 85.4569 17.3322 85.468 18.0734V18.1682C85.218 18.0274 84.6828 17.8188 84.0245 17.8188C82.7041 17.8188 81.3587 18.5275 81.3587 19.8501C81.3587 21.0598 82.4402 21.8389 83.6559 21.8389C84.5856 21.8389 85.0985 21.4299 85.4207 20.9542H85.468V21.652H86.8022V18.189C86.8022 16.5883 85.5763 15.6928 83.9883 15.6928ZM83.8217 20.64C83.3698 20.64 82.7402 20.4215 82.7402 19.8754C82.7402 19.1766 83.5254 18.9085 84.205 18.9085C84.8133 18.9085 85.0985 19.0394 85.468 19.2118C85.3596 20.0478 84.6217 20.64 83.8217 20.64ZM91.6633 15.8905L90.0754 19.804H90.0282L88.3865 15.8905H86.8967L89.3633 21.3595L87.9559 24.4028H89.3995L93.2004 15.8905H91.6633ZM79.2106 21.6665H80.5957V12.6387H79.2106V21.6665Z" fill="black"/>
<defs>
<linearGradient id="paint0_linear_3345_36882" x1="16.1476" y1="22.598" x2="4.03081" y2="10.1706" gradientUnits="userSpaceOnUse">
<stop stop-color="#00A0FF"/>
<stop offset="0.0066" stop-color="#00A1FF"/>
<stop offset="0.2601" stop-color="#00BEFF"/>
<stop offset="0.5122" stop-color="#00D2FF"/>
<stop offset="0.7604" stop-color="#00DFFF"/>
<stop offset="1" stop-color="#00E3FF"/>
</linearGradient>
<linearGradient id="paint1_linear_3345_36882" x1="25.0624" y1="14.4429" x2="7.13882" y2="14.4429" gradientUnits="userSpaceOnUse">
<stop stop-color="#FFE000"/>
<stop offset="0.4087" stop-color="#FFBD00"/>
<stop offset="0.7754" stop-color="#FFA500"/>
<stop offset="1" stop-color="#FF9C00"/>
</linearGradient>
<linearGradient id="paint2_linear_3345_36882" x1="18.3902" y1="12.7864" x2="1.95895" y2="-4.06615" gradientUnits="userSpaceOnUse">
<stop stop-color="#FF3A44"/>
<stop offset="1" stop-color="#C31162"/>
</linearGradient>
<linearGradient id="paint3_linear_3345_36882" x1="5.40527" y1="28.7625" x2="12.7426" y2="21.2371" gradientUnits="userSpaceOnUse">
<stop stop-color="#32A071"/>
<stop offset="0.0685" stop-color="#2DA771"/>
<stop offset="0.4762" stop-color="#15CF74"/>
<stop offset="0.8009" stop-color="#06E775"/>
<stop offset="1" stop-color="#00F076"/>
</linearGradient>
</defs>
</svg>
