<svg width="24" height="25" viewBox="0 0 24 25" fill="none" xmlns="http://www.w3.org/2000/svg">
<mask id="mask0_3345_36647" style="mask-type:alpha" maskUnits="userSpaceOnUse" x="0" y="0" width="24" height="25">
<rect y="0.5" width="24" height="24" fill="#D9D9D9"/>
</mask>
<g mask="url(#mask0_3345_36647)">
<path d="M5.5781 22.1816C4.8794 22.1816 4.28806 21.9396 3.80407 21.4556C3.32011 20.9717 3.07812 20.3803 3.07812 19.6816V18.6047C3.07812 18.1076 3.25513 17.682 3.60915 17.328C3.96315 16.974 4.38871 16.797 4.88583 16.797H6.07813V4.98934C6.07813 4.49223 6.25513 4.06667 6.60915 3.71267C6.96315 3.35865 7.38871 3.18164 7.88583 3.18164H18.2704C18.7675 3.18164 19.1931 3.35865 19.5471 3.71267C19.9011 4.06667 20.0781 4.49223 20.0781 4.98934V19.6816C20.0781 20.3803 19.8361 20.9717 19.3521 21.4556C18.8681 21.9396 18.2768 22.1816 17.5781 22.1816H5.5781ZM17.5781 20.6816C17.8614 20.6816 18.0989 20.5858 18.2906 20.3941C18.4823 20.2024 18.5781 19.965 18.5781 19.6816V4.98934C18.5781 4.89959 18.5493 4.82587 18.4916 4.76817C18.4339 4.71047 18.3601 4.68162 18.2704 4.68162H7.88583C7.79608 4.68162 7.72235 4.71047 7.66465 4.76817C7.60695 4.82587 7.5781 4.89959 7.5781 4.98934V16.797H14.7704C15.2675 16.797 15.6931 16.974 16.0471 17.328C16.4011 17.682 16.5781 18.1076 16.5781 18.6047V19.6816C16.5781 19.965 16.6739 20.2024 16.8656 20.3941C17.0573 20.5858 17.2948 20.6816 17.5781 20.6816ZM9.5204 9.37389C9.3079 9.37389 9.12978 9.30199 8.98605 9.15819C8.8423 9.01438 8.77043 8.83618 8.77043 8.62359C8.77043 8.41099 8.8423 8.2329 8.98605 8.08932C9.12978 7.94573 9.3079 7.87394 9.5204 7.87394H16.6358C16.8483 7.87394 17.0264 7.94585 17.1702 8.08967C17.3139 8.23347 17.3858 8.41167 17.3858 8.62427C17.3858 8.83685 17.3139 9.01493 17.1702 9.15852C17.0264 9.3021 16.8483 9.37389 16.6358 9.37389H9.5204ZM9.5204 12.2585C9.3079 12.2585 9.12978 12.1866 8.98605 12.0428C8.8423 11.899 8.77043 11.7208 8.77043 11.5082C8.77043 11.2956 8.8423 11.1175 8.98605 10.9739C9.12978 10.8303 9.3079 10.7585 9.5204 10.7585H16.6358C16.8483 10.7585 17.0264 10.8305 17.1702 10.9743C17.3139 11.1181 17.3858 11.2963 17.3858 11.5089C17.3858 11.7215 17.3139 11.8995 17.1702 12.0431C17.0264 12.1867 16.8483 12.2585 16.6358 12.2585H9.5204ZM5.5781 20.6816H15.0781V18.6047C15.0781 18.5149 15.0493 18.4412 14.9916 18.3835C14.9339 18.3258 14.8602 18.297 14.7704 18.297H4.88583C4.79608 18.297 4.72235 18.3258 4.66465 18.3835C4.60695 18.4412 4.5781 18.5149 4.5781 18.6047V19.6816C4.5781 19.965 4.67393 20.2024 4.8656 20.3941C5.05727 20.5858 5.29477 20.6816 5.5781 20.6816ZM5.5781 20.6816H4.5781H15.0781H5.5781Z" fill="#E87E57"/>
</g>
</svg>
