<svg width="21" height="21" viewBox="0 0 21 21" fill="none" xmlns="http://www.w3.org/2000/svg">
<g clip-path="url(#clip0_3345_36671)">
<path d="M10.7897 20.3705C16.2822 20.3705 20.7347 15.9179 20.7347 10.4255C20.7347 4.933 16.2822 0.480469 10.7897 0.480469C5.29725 0.480469 0.844727 4.933 0.844727 10.4255C0.844727 15.9179 5.29725 20.3705 10.7897 20.3705Z" fill="#FF4500"/>
<path d="M17.4194 10.4256C17.4194 9.62306 16.768 8.97169 15.9654 8.97169C15.5699 8.97169 15.221 9.1229 14.9651 9.37879C13.9764 8.66927 12.6039 8.204 11.0918 8.14585L11.7548 5.04021L13.9066 5.49385C13.9299 6.04053 14.3835 6.48253 14.9418 6.48253C15.5118 6.48253 15.977 6.01727 15.977 5.44732C15.977 4.87737 15.5118 4.41211 14.9418 4.41211C14.5347 4.41211 14.1858 4.64474 14.0229 4.99369L11.6152 4.4819C11.5454 4.47027 11.4756 4.4819 11.4175 4.51679C11.3593 4.55169 11.3244 4.60985 11.3011 4.67964L10.5684 8.14585C9.02135 8.19237 7.6372 8.646 6.63688 9.37879C6.38099 9.13453 6.02041 8.97169 5.63656 8.97169C4.83399 8.97169 4.18262 9.62306 4.18262 10.4256C4.18262 11.0188 4.53156 11.519 5.04335 11.7516C5.02009 11.8912 5.00846 12.0424 5.00846 12.1936C5.00846 14.4269 7.6023 16.2298 10.8126 16.2298C14.0229 16.2298 16.6168 14.4269 16.6168 12.1936C16.6168 12.0424 16.6051 11.9028 16.5819 11.7633C17.0588 11.5306 17.4194 11.0188 17.4194 10.4256ZM7.47435 11.4608C7.47435 10.8909 7.93962 10.4256 8.50956 10.4256C9.07951 10.4256 9.54478 10.8909 9.54478 11.4608C9.54478 12.0308 9.07951 12.4961 8.50956 12.4961C7.93962 12.4961 7.47435 12.0308 7.47435 11.4608ZM13.2552 14.1943C12.5457 14.9038 11.1965 14.9503 10.801 14.9503C10.4055 14.9503 9.04462 14.8922 8.34672 14.1943C8.24204 14.0896 8.24204 13.9151 8.34672 13.8104C8.45141 13.7057 8.62588 13.7057 8.73056 13.8104C9.17256 14.2524 10.1264 14.4153 10.8126 14.4153C11.4989 14.4153 12.441 14.2524 12.8947 13.8104C12.9994 13.7057 13.1738 13.7057 13.2785 13.8104C13.3599 13.9267 13.3599 14.0896 13.2552 14.1943ZM13.0691 12.4961C12.4992 12.4961 12.0339 12.0308 12.0339 11.4608C12.0339 10.8909 12.4992 10.4256 13.0691 10.4256C13.6391 10.4256 14.1044 10.8909 14.1044 11.4608C14.1044 12.0308 13.6391 12.4961 13.0691 12.4961Z" fill="white"/>
</g>
<defs>
<clipPath id="clip0_3345_36671">
<rect width="19.89" height="19.89" fill="white" transform="translate(0.844727 0.480469)"/>
</clipPath>
</defs>
</svg>
